<svg aria-hidden="true" style="position: absolute; width: 0; height: 0; overflow: hidden;" version="1.1" xmlns="http://www.w3.org/2000/svg" xmlns:xlink="http://www.w3.org/1999/xlink">
<defs>
<symbol id="icon-logo-aloha" viewBox="0 0 32 32">
<path d="M14.972 14.837c-0.518 0.073-0.777 0.678-0.777 1.807s0.259 1.644 0.777 1.533c0.518-0.112 0.777-0.718 0.777-1.809s-0.259-1.605-0.777-1.531z"></path>
<path d="M3.085 16.245c0.601 0.098 1.201 0.169 1.802 0.215-0.289-0.942-0.577-1.904-0.866-2.885-0.312 0.883-0.624 1.773-0.935 2.67z"></path>
<path d="M31.49 16.732v-0.989c0-0.888-0.447-1.688-1.257-2.251-0.586-0.407-1.372-0.699-2.272-0.845h-0.005c-0.458-0.072-0.88-0.108-1.254-0.108-0.632 0-1.135 0.099-1.537 0.304-0.168 0.086-0.316 0.191-0.443 0.312-0.507-0.505-1.243-0.79-2.141-0.79-0.055 0-0.111 0.001-0.167 0.003h-0.007c-0.062 0.003-0.123 0.007-0.185 0.014v-0.412c-0.002-1.84-1.323-1.933-1.588-1.933-0.015 0-0.031 0-0.046 0.001-0.217 0.004-0.448 0.058-1.082 0.218-0.295 0.075-0.629 0.158-0.817 0.192-1.351 0.229-1.456 1.246-1.456 1.552 0 0.294 0.085 0.783 0.578 1.134v0.432c-0.582-0.302-1.277-0.467-2.007-0.467-0.206 0-0.414 0.014-0.619 0.039-0.843 0.108-1.681 0.457-2.36 0.975v-1.37c0-0.571-0.085-0.991-0.267-1.323-0.273-0.499-0.756-0.784-1.325-0.784-0.016 0-0.033 0-0.050 0.001h-0.007c-0.203 0.007-0.409 0.059-0.82 0.167-0.277 0.073-0.657 0.172-0.849 0.194-1 0.116-1.671 0.773-1.671 1.636 0 0.495 0.194 0.898 0.577 1.2v1.999c-0.127-0.383-0.262-0.789-0.405-1.218-0.354-1.063-0.659-1.98-0.716-2.156l-0.010-0.032-0.012-0.031c-0.195-0.496-0.362-0.925-0.744-1.256-0.421-0.364-0.91-0.447-1.383-0.527-0.211-0.038-0.396-0.057-0.568-0.057-1.286 0-1.715 1.042-1.947 1.603-0.453 1.085-1.639 5.132-1.985 6.404-0.258 0.196-0.647 0.589-0.647 1.279 0 0.882 0.52 1.54 1.357 1.717 0.39 0.082 0.788 0.152 1.187 0.21 0.11 0.015 0.214 0.023 0.313 0.023 0.91 0 1.545-0.644 1.545-1.566 0-0.579-0.257-0.943-0.467-1.155 0.002-0.008 0.004-0.017 0.006-0.026 0.252 0.030 0.506 0.054 0.763 0.075 0.029 0.126 0.054 0.234 0.074 0.324 0.002 0.008 0.003 0.017 0.006 0.025-0.161 0.212-0.314 0.519-0.314 0.934 0 0.491 0.226 0.937 0.619 1.224 0.307 0.224 0.686 0.336 1.129 0.336 0.028 0 0.057-0.001 0.086-0.002 0.682-0.022 1.4-0.075 2.136-0.155 0.257-0.029 0.476-0.092 0.664-0.178 0.108 0.023 0.219 0.036 0.333 0.036 0.084 0 0.168-0.006 0.253-0.019 0.705-0.103 1.439-0.23 2.243-0.389 0.513-0.102 0.944-0.42 1.19-0.834 0.421 0.169 0.896 0.262 1.41 0.262 0.355 0 0.713-0.045 1.067-0.134 0.849-0.212 1.697-0.654 2.366-1.225 0.254 0.195 0.581 0.311 0.942 0.311 0.128 0 0.26-0.014 0.391-0.043 0.68-0.147 1.294-0.27 1.874-0.377 0.237-0.044 0.455-0.128 0.647-0.243 0.123 0.029 0.252 0.044 0.386 0.044 0.095 0 0.191-0.008 0.289-0.022 0.647-0.097 1.251-0.171 1.844-0.224 0.342-0.031 0.648-0.148 0.898-0.323 0.441 0.2 0.963 0.304 1.54 0.304h0.044c0.454 0 0.851-0.047 1.193-0.143 0.29 0.14 0.582 0.174 0.763 0.196 0.466 0.057 0.933 0.134 1.386 0.229 0.182 0.038 0.342 0.057 0.489 0.057 0.326 0 0.611-0.090 0.848-0.268 0.318-0.239 0.501-0.611 0.501-1.020-0.003-0.543-0.297-0.883-0.51-1.071zM7.962 20.22c-0.683 0.072-1.367 0.122-2.050 0.143-0.438 0.014-0.687-0.155-0.687-0.442 0-0.37 0.388-0.404 0.388-0.606 0-0.179-0.099-0.459-0.358-1.637-0.83-0.034-1.659-0.113-2.489-0.246-0.209 0.737-0.338 1.142-0.338 1.417 0 0.502 0.507 0.384 0.507 0.903 0 0.334-0.169 0.493-0.587 0.436-0.372-0.052-0.743-0.114-1.115-0.19-0.319-0.065-0.478-0.257-0.478-0.616 0-0.448 0.478-0.426 0.537-0.694 0.179-0.715 1.563-5.27 2.011-6.301 0.329-0.77 0.518-0.985 1.294-0.848 0.886 0.143 0.935 0.201 1.284 1.057 0.159 0.476 2.11 6.096 2.21 6.429 0.109 0.412 0.468 0.226 0.468 0.699-0.002 0.314-0.22 0.456-0.599 0.496zM11.36 19.705c-0.73 0.138-1.46 0.262-2.19 0.366-0.338 0.048-0.518-0.179-0.518-0.37 0-0.449 0.518-0.332 0.518-0.924 0-1.815 0-3.629 0-5.443 0-0.623-0.578-0.374-0.578-0.894 0-0.294 0.299-0.478 0.687-0.522 0.488-0.053 1.384-0.334 1.583-0.341 0.299-0.008 0.498 0.198 0.498 0.969 0 1.972 0 3.944 0 5.917 0 0.569 0.518 0.305 0.518 0.729-0.001 0.18-0.179 0.45-0.519 0.514zM14.972 19.037c-1.463 0.354-3.056-0.257-3.066-2.016 0.010-1.755 1.603-2.863 3.066-3.044 1.463-0.179 3.056 0.466 3.066 1.99-0.010 1.522-1.603 2.719-3.066 3.070zM23.882 17.295c-0.637 0.055-1.274 0.131-1.911 0.224-0.338 0.050-0.518-0.113-0.518-0.262 0-0.349 0.378-0.263 0.378-0.72 0-0.564 0-1.129 0-1.693 0-0.396-0.149-0.698-0.537-0.667-0.388 0.032-0.537 0.367-0.537 0.774 0 0.578 0 1.157 0 1.734 0 0.469 0.378 0.269 0.378 0.621 0 0.149-0.179 0.371-0.518 0.431-0.637 0.113-1.274 0.237-1.911 0.37-0.338 0.071-0.518-0.097-0.518-0.256 0-0.374 0.378-0.301 0.378-0.793 0-0.662 0-1.324 0-1.987 0-0.848 0-1.696 0-2.544 0-0.52-0.578-0.266-0.578-0.699 0-0.245 0.149-0.388 0.537-0.45 0.488-0.084 1.533-0.377 1.732-0.379 0.299-0.009 0.498 0.164 0.498 0.8 0 0.626 0 1.251 0 1.877 0.408-0.246 0.896-0.415 1.344-0.434 1.314-0.046 1.921 0.622 1.921 1.637 0 0.483 0 0.968 0 1.451 0 0.434 0.378 0.28 0.378 0.605-0.001 0.14-0.18 0.329-0.519 0.358zM30.034 17.567c-0.494-0.1-0.988-0.177-1.483-0.235-0.448-0.051-0.567-0.108-0.647-0.451-0.319 0.332-0.946 0.396-1.483 0.393-1.264 0-1.842-0.601-1.842-1.227 0-0.822 0.876-1.476 3.205-1.174-0.020-0.583-0.179-0.746-0.587-0.801-0.567-0.070-0.567 0.5-1.374 0.45-0.548-0.028-0.836-0.229-0.836-0.504 0-0.455 0.747-0.773 2.439-0.517 1.374 0.213 2.598 0.836 2.598 1.934 0 0.411 0 0.822 0 1.233 0 0.433 0.507 0.438 0.507 0.751 0 0.187-0.179 0.213-0.498 0.148z"></path>
<path d="M26.769 16.078c0 0.268 0.179 0.445 0.438 0.462 0.478 0.032 0.627-0.469 0.627-1.109-0.617-0.081-1.065 0.157-1.065 0.648z"></path>
</symbol>
<symbol id="icon-logo-palm" viewBox="0 0 32 32">
<path d="M29.976 9.674c-1.844-3.867-5.667-6.288-9.087-6.389 0.771-0.807 1.71-1.547 2.783-2.186 0.469-0.269 0.302-0.941-0.235-1.009-2.75-0.202-5.466 0.639-7.31 2.286-2.146-1.715-5.298-2.69-8.484-2.286-0.537 0.067-0.637 0.841-0.101 1.042 1.341 0.504 2.582 1.21 3.622 2.085-3.487 0.067-7.344 2.623-9.154 6.59-0.201 0.471 0.302 0.941 0.738 0.672 2.247-1.244 4.728-2.152 6.841-2.32-2.649 1.715-4.024 5.212-3.655 8.709 0.067 0.538 0.771 0.672 1.006 0.202 1.844-3.497 4.359-5.38 6.874-5.447 0.972 9.28-0.738 17.047-1.375 19.536-0.101 0.437 0.201 0.841 0.637 0.841h5.634c0.369 0 0.637-0.269 0.671-0.639 0.034-0.471 0.034-1.143 0.067-2.051l-2.113-0.235c-0.168-0.034-0.168-0.403 0-0.403l2.146-0.235c0-1.11 0-2.455-0.067-3.968l-2.18-0.235c-0.168-0.034-0.168-0.403 0-0.403l2.146-0.235c-0.034-1.21-0.134-2.555-0.235-3.934l-2.247-0.269c-0.168-0.034-0.168-0.403 0-0.403l2.18-0.235c-0.101-1.278-0.235-2.623-0.436-3.968l-1.978-0.336c-0.168 0-0.168-0.404 0-0.404l1.844-0.202c-0.101-0.773-0.235-1.547-0.335-2.32 2.616 0.336 4.996 2.253 6.539 5.817 0.201 0.471 0.905 0.37 1.006-0.134 0.738-3.867-0.536-7.431-3.219-9.146 1.844 0.168 4.125 1.009 6.774 2.354 0.436 0.202 0.939-0.269 0.704-0.74z"></path>
</symbol>
</defs>
</svg>
